<?xml version="1.0" standalone="no"?>
<!DOCTYPE svg PUBLIC "-//W3C//DTD SVG 20010904//EN"
 "http://www.w3.org/TR/2001/REC-SVG-20010904/DTD/svg10.dtd">
<svg version="1.0" xmlns="http://www.w3.org/2000/svg"
 width="444.000000pt" height="593.000000pt" viewBox="0 0 444.000000 593.000000"
 preserveAspectRatio="xMidYMid meet">

<g transform="translate(0.000000,593.000000) scale(0.100000,-0.100000)"
fill="#000000" stroke="none">
<path d="M1810 4991 c-84 -13 -140 -30 -195 -60 -45 -25 -63 -29 -170 -33 -95
-4 -137 -11 -200 -32 -98 -34 -181 -77 -235 -123 -22 -19 -64 -44 -91 -54
-199 -76 -462 -375 -575 -653 -56 -139 -55 -142 25 -64 108 105 237 158 387
158 60 0 69 3 106 34 49 42 163 99 243 122 44 13 102 17 220 18 135 1 164 4
186 19 39 26 188 74 273 88 95 15 299 6 381 -16 33 -9 94 -33 135 -53 l75 -37
160 -1 c145 0 168 -3 240 -27 83 -27 182 -81 226 -123 22 -21 34 -24 100 -24
147 0 284 -58 394 -167 l65 -64 -26 73 c-69 191 -181 365 -334 519 -108 108
-194 172 -263 196 -22 8 -65 33 -96 57 -127 98 -262 146 -431 153 -102 4 -121
8 -171 34 -31 15 -82 35 -113 43 -71 19 -241 28 -316 17z"/>
<path d="M1699 3953 c-15 -4 -255 -480 -247 -489 2 -1 29 0 59 3 l55 5 122
244 122 244 -48 -1 c-26 -1 -54 -3 -63 -6z"/>
<path d="M1862 3855 l-52 -105 0 -130 c0 -144 -3 -138 68 -124 l31 6 3 141 3
141 53 -72 c30 -40 55 -72 56 -72 1 0 26 32 56 70 l55 71 3 -145 3 -144 49 -4
50 -3 0 217 c0 119 3 223 6 231 4 12 -6 16 -52 19 l-58 3 -43 -55 c-23 -30
-48 -63 -55 -73 -12 -17 -18 -11 -66 57 -29 42 -54 76 -55 76 -1 0 -26 -47
-55 -105z"/>
<path d="M1270 3893 c-68 -13 -126 -25 -127 -26 -4 -5 14 -448 19 -453 3 -3
46 3 96 12 l90 17 21 45 c12 24 20 46 19 48 -2 1 -21 -1 -43 -6 -22 -5 -53
-10 -68 -10 -27 0 -28 1 -25 48 l3 47 90 18 c49 10 90 19 91 20 0 1 -1 19 -4
41 l-4 38 -47 -6 c-25 -3 -65 -9 -87 -12 l-42 -6 -7 42 c-5 28 -3 45 4 49 6 4
48 13 94 20 121 19 117 17 117 62 0 38 -1 39 -32 38 -18 -1 -89 -12 -158 -26z"/>
<path d="M2489 3873 c-96 -224 -159 -387 -152 -393 4 -4 26 -10 49 -13 l41 -5
18 50 c16 45 20 49 44 44 14 -3 52 -10 83 -16 l57 -11 15 -53 c15 -52 18 -54
62 -65 26 -7 49 -10 51 -7 3 2 -30 115 -73 251 -69 220 -80 246 -101 250 -13
3 -34 7 -48 10 -23 5 -28 0 -46 -42z m107 -236 c6 -19 8 -19 -69 -2 -31 6 -31
12 6 95 l20 45 19 -60 c10 -33 21 -68 24 -78z"/>
<path d="M2883 3773 c19 -38 47 -96 62 -130 l28 -63 -73 -95 c-40 -53 -71 -97
-69 -99 2 -2 26 -10 53 -19 56 -19 49 -23 107 66 17 26 33 46 35 44 3 -2 21
-43 42 -92 36 -85 38 -87 86 -106 28 -10 51 -17 53 -15 2 2 -23 65 -57 141
l-60 137 42 51 c23 29 55 67 72 84 16 18 26 36 22 40 -14 14 -100 43 -106 35
-4 -4 -24 -31 -45 -60 l-38 -54 -36 86 c-35 82 -38 86 -80 101 -72 25 -75 22
-38 -52z"/>
<path d="M760 3753 c-52 -19 -96 -36 -98 -38 -1 -1 3 -104 9 -229 l13 -227 22
5 c76 19 76 19 73 103 -3 68 -2 77 16 84 36 14 43 10 81 -43 21 -29 40 -56 44
-61 7 -8 110 22 110 32 0 3 -23 35 -50 71 l-49 65 29 30 c37 39 50 74 50 136
0 42 -5 55 -29 80 -41 41 -98 39 -221 -8z m138 -65 c18 -18 14 -73 -6 -98 -15
-18 -111 -65 -118 -57 0 1 -4 32 -8 69 l-6 66 42 15 c53 19 81 20 96 5z"/>
<path d="M1820 3159 c-111 -11 -249 -44 -327 -79 -53 -24 -71 -28 -118 -23
-160 17 -436 -64 -553 -161 -20 -17 -45 -24 -97 -29 -38 -3 -100 -16 -136 -30
-65 -23 -175 -93 -212 -135 -17 -19 -17 -21 6 -73 110 -249 493 -709 1121
-1347 89 -90 174 -173 190 -185 28 -20 42 -21 230 -22 l201 -1 75 70 c93 85
162 155 365 366 490 511 794 886 897 1106 l32 68 -53 47 c-88 79 -234 139
-338 139 -33 0 -53 8 -88 35 -49 37 -142 84 -218 109 -77 26 -236 48 -308 43
-37 -2 -74 0 -83 5 -32 18 -161 60 -211 69 -44 8 -144 21 -255 33 -19 2 -73 0
-120 -5z"/>
<path d="M1730 881 c0 -5 5 -11 10 -13 6 -2 24 -54 42 -116 l31 -112 117 0
117 0 28 106 c15 58 34 112 42 119 7 8 13 16 13 19 0 3 -90 6 -200 6 -115 0
-200 -4 -200 -9z"/>
<path d="M2292 865 c-72 -61 -60 -170 24 -210 52 -24 105 -13 145 32 29 33 31
41 27 90 -6 74 -37 105 -110 111 -47 4 -58 1 -86 -23z m161 -25 c40 -45 38
-101 -7 -146 -28 -28 -42 -34 -76 -34 -56 0 -110 50 -110 102 0 40 32 95 63
108 40 18 99 4 130 -30z"/>
<path d="M2332 768 c0 -40 3 -58 5 -40 3 22 10 32 22 32 22 0 41 -19 41 -42 0
-10 5 -18 10 -18 13 0 13 12 0 44 -6 16 -6 27 0 31 17 10 11 44 -9 55 -11 5
-31 10 -45 10 -26 0 -26 -1 -24 -72z m49 52 c34 -19 18 -50 -27 -50 -14 0 -20
41 -7 53 8 9 11 9 34 -3z"/>
</g>
</svg>
